M48
; DRILL file {KiCad (5.1.8)-1} date 01/29/21 07:29:37
; FORMAT={-:-/ absolute / inch / decimal}
; #@! TF.CreationDate,2021-01-29T07:29:37+01:00
; #@! TF.GenerationSoftware,Kicad,Pcbnew,(5.1.8)-1
; #@! TF.FileFunction,Plated,1,2,PTH
FMAT,2
INCH
T1C0.0157
T2C0.0197
T3C0.0276
T4C0.0315
T5C0.0354
T6C0.0394
T7C0.0433
T8C0.0598
%
G90
G05
T1
X2.0895Y-4.0805
X3.222Y-4.8855
X3.572Y-4.683
X4.3895Y-3.2805
X4.417Y-4.083
X4.5445Y-3.653
X4.6945Y-4.5105
X4.7645Y-3.653
X5.1403Y-4.8272
X5.3345Y-4.083
X5.3445Y-5.6255
X5.4695Y-3.173
X5.5945Y-4.083
X5.5987Y-5.6197
X5.6595Y-4.698
X5.8095Y-4.288
X5.852Y-2.9805
X5.9295Y-5.5813
X5.932Y-4.038
X6.027Y-4.013
X6.0298Y-5.5527
X6.157Y-5.5105
X6.2145Y-5.188
X6.262Y-3.663
X6.2741Y-5.1584
X6.3412Y-4.083
X6.3412Y-5.6255
X6.402Y-5.188
X6.4495Y-5.1505
X6.4596Y-3.6404
X6.487Y-3.5905
X6.6945Y-5.6255
X6.702Y-4.083
X6.7812Y-3.4805
X6.7812Y-5.023
X6.8912Y-2.9501
X6.8912Y-4.4926
X6.8937Y-3.228
X6.8937Y-4.7705
X6.927Y-4.0155
X6.9312Y-5.5572
X6.937Y-2.9862
X6.937Y-4.5287
X6.9662Y-2.7213
X6.9662Y-4.2638
X7.0312Y-3.9772
X7.032Y-5.5205
X7.0812Y-2.723
X7.0812Y-4.2655
X7.1637Y-2.948
X7.1637Y-4.4905
X7.2312Y-4.8272
X7.2487Y-2.9705
X7.2487Y-4.513
X7.4412Y-4.083
X7.4412Y-5.6255
X7.6662Y-3.028
X7.6662Y-4.5705
X7.7212Y-2.9955
X7.7212Y-4.538
X7.8112Y-4.083
X7.8312Y-5.6247
X8.0495Y-3.283
X8.1262Y-4.7105
X8.3912Y-3.0114
X8.3912Y-4.5539
X9.3762Y-3.753
X9.3762Y-5.2955
X9.4312Y-3.0405
X9.4312Y-4.583
X9.4337Y-4.8797
X9.4445Y-3.928
X9.5312Y-3.013
X9.5312Y-4.5555
X9.5345Y-3.343
X9.7312Y-3.013
X9.7312Y-4.5555
X9.7737Y-3.0415
X9.7737Y-4.584
T2
X2.1715Y-3.0605
X2.2463Y-3.0605
T3
X2.0895Y-4.3243
X2.1395Y-4.3743
X2.1895Y-4.3243
X3.9945Y-5.2405
X4.0445Y-5.1905
X4.0445Y-5.2905
T4
X1.7465Y-3.553
X1.7465Y-3.853
X1.8465Y-3.553
X1.8465Y-3.853
X1.9465Y-3.553
X1.9465Y-3.853
X2.0465Y-3.553
X2.0465Y-3.853
X2.1465Y-3.553
X2.1465Y-3.853
X2.2465Y-3.553
X2.2465Y-3.853
X2.3465Y-3.553
X2.3465Y-3.853
X2.4465Y-3.553
X2.4465Y-3.853
X5.8912Y-3.423
X5.9912Y-3.423
X6.0912Y-3.423
X6.1912Y-3.423
X6.2912Y-3.423
X6.3912Y-3.423
X6.4912Y-3.423
X6.5912Y-3.423
X6.6912Y-3.423
X7.9298Y-5.0955
X7.9298Y-5.3955
X8.0298Y-5.0955
X8.0298Y-5.3955
X8.1298Y-5.0955
X8.1298Y-5.3955
X8.2298Y-5.0955
X8.2298Y-5.3955
X8.3298Y-5.0955
X8.3298Y-5.3955
X8.4298Y-5.0955
X8.4298Y-5.3955
X8.5298Y-5.0955
X8.5298Y-5.3955
X8.6298Y-5.0955
X8.6298Y-5.3955
X8.7298Y-5.0955
X8.7298Y-5.3955
X8.8298Y-5.0955
X8.8298Y-5.3955
X8.9298Y-5.0955
X8.9298Y-5.3955
X9.0298Y-5.0955
X9.0298Y-5.3955
X9.1298Y-5.0955
X9.1298Y-5.3955
X9.2298Y-5.0955
X9.2298Y-5.3955
X8.2287Y-4.353
X8.2287Y-4.653
X8.3287Y-4.353
X8.3287Y-4.653
X8.4287Y-4.353
X8.4287Y-4.653
X8.5287Y-4.353
X8.5287Y-4.653
X8.6287Y-4.353
X8.6287Y-4.653
X8.7287Y-4.353
X8.7287Y-4.653
X8.8287Y-4.353
X8.8287Y-4.653
X4.9995Y-4.3505
X4.9995Y-4.6505
X5.0995Y-4.3505
X5.0995Y-4.6505
X5.1995Y-4.3505
X5.1995Y-4.6505
X5.2995Y-4.3505
X5.2995Y-4.6505
X5.3995Y-4.3505
X5.3995Y-4.6505
X5.4995Y-4.3505
X5.4995Y-4.6505
X5.5995Y-4.3505
X5.5995Y-4.6505
X7.0212Y-2.8039
X7.0212Y-3.1039
X7.1212Y-2.8039
X7.1212Y-3.1039
X7.2212Y-2.8039
X7.2212Y-3.1039
X7.3212Y-2.8039
X7.3212Y-3.1039
X7.4212Y-2.8039
X7.4212Y-3.1039
X7.5212Y-2.8039
X7.5212Y-3.1039
X7.6212Y-2.8039
X7.6212Y-3.1039
X7.7212Y-2.8039
X7.7212Y-3.1039
X4.6062Y-3.5961
X4.6062Y-3.793
X9.2312Y-2.8105
X9.2312Y-3.1105
X9.3312Y-2.8105
X9.3312Y-3.1105
X9.4312Y-2.8105
X9.4312Y-3.1105
X9.5312Y-2.8105
X9.5312Y-3.1105
X9.6312Y-2.8105
X9.6312Y-3.1105
X9.7312Y-2.8105
X9.7312Y-3.1105
X9.8312Y-2.8105
X9.8312Y-3.1105
X2.664Y-3.6036
X2.664Y-3.8005
X9.5837Y-5.1486
X9.5837Y-5.3455
X1.8245Y-4.5343
X2.2245Y-4.5343
X4.7362Y-5.0955
X4.7362Y-5.3955
X4.8362Y-5.0955
X4.8362Y-5.3955
X4.9362Y-5.0955
X4.9362Y-5.3955
X5.0362Y-5.0955
X5.0362Y-5.3955
X5.1362Y-5.0955
X5.1362Y-5.3955
X5.2362Y-5.0955
X5.2362Y-5.3955
X5.3362Y-5.0955
X5.3362Y-5.3955
X5.8912Y-4.3505
X5.8912Y-4.6505
X5.9912Y-4.3505
X5.9912Y-4.6505
X6.0912Y-4.3505
X6.0912Y-4.6505
X6.1912Y-4.3505
X6.1912Y-4.6505
X6.2912Y-4.3505
X6.2912Y-4.6505
X6.3912Y-4.3505
X6.3912Y-4.6505
X6.4912Y-4.3505
X6.4912Y-4.6505
X6.5912Y-4.3505
X6.5912Y-4.6505
X5.7312Y-3.553
X5.7312Y-3.853
X5.8312Y-3.553
X5.8312Y-3.853
X5.9312Y-3.553
X5.9312Y-3.853
X6.0312Y-3.553
X6.0312Y-3.853
X6.1312Y-3.553
X6.1312Y-3.853
X6.2312Y-3.553
X6.2312Y-3.853
X6.3312Y-3.553
X6.3312Y-3.853
X10.0087Y-2.8155
X10.0087Y-3.1155
X10.1087Y-2.8155
X10.1087Y-3.1155
X10.2087Y-2.8155
X10.2087Y-3.1155
X10.3087Y-2.8155
X10.3087Y-3.1155
X2.7915Y-3.553
X2.7915Y-3.853
X2.8915Y-3.553
X2.8915Y-3.853
X2.9915Y-3.553
X2.9915Y-3.853
X3.0915Y-3.553
X3.0915Y-3.853
X3.1915Y-3.553
X3.1915Y-3.853
X3.2915Y-3.553
X3.2915Y-3.853
X3.3915Y-3.553
X3.3915Y-3.853
X7.8537Y-2.8546
X7.8537Y-3.0514
X10.0112Y-4.353
X10.0112Y-4.653
X10.1112Y-4.353
X10.1112Y-4.653
X10.2112Y-4.353
X10.2112Y-4.653
X10.3112Y-4.353
X10.3112Y-4.653
X9.7112Y-3.553
X9.7112Y-3.853
X9.8112Y-3.553
X9.8112Y-3.853
X9.9112Y-3.553
X9.9112Y-3.853
X10.0112Y-3.553
X10.0112Y-3.853
X10.1112Y-3.553
X10.1112Y-3.853
X10.2112Y-3.553
X10.2112Y-3.853
X10.3112Y-3.553
X10.3112Y-3.853
X8.6369Y-3.9855
X8.8337Y-3.9855
X5.6037Y-3.6186
X5.6037Y-3.8155
X9.5812Y-3.6061
X9.5812Y-3.803
X6.7012Y-5.1361
X6.7012Y-5.333
X1.8471Y-3.0655
X2.044Y-3.0655
X2.0445Y-2.903
X2.4445Y-2.903
X5.7298Y-5.0955
X5.7298Y-5.3955
X5.8298Y-5.0955
X5.8298Y-5.3955
X5.9298Y-5.0955
X5.9298Y-5.3955
X6.0298Y-5.0955
X6.0298Y-5.3955
X6.1298Y-5.0955
X6.1298Y-5.3955
X6.2298Y-5.0955
X6.2298Y-5.3955
X6.3298Y-5.0955
X6.3298Y-5.3955
X7.9337Y-5.533
X8.0337Y-5.533
X8.1337Y-5.533
X8.2337Y-5.533
X8.3337Y-5.533
X1.6165Y-3.6011
X1.6165Y-3.798
X9.1012Y-2.8536
X9.1012Y-3.0505
X6.8887Y-4.3986
X6.8887Y-4.5955
X7.8312Y-3.423
X7.9312Y-3.423
X8.0312Y-3.423
X8.1312Y-3.423
X8.2312Y-3.423
X8.3312Y-3.423
X8.4312Y-3.423
X8.5312Y-3.423
X8.6312Y-3.423
X7.9312Y-3.553
X7.9312Y-3.853
X8.0312Y-3.553
X8.0312Y-3.853
X8.1312Y-3.553
X8.1312Y-3.853
X8.2312Y-3.553
X8.2312Y-3.853
X8.3312Y-3.553
X8.3312Y-3.853
X8.4312Y-3.553
X8.4312Y-3.853
X8.5312Y-3.553
X8.5312Y-3.853
X8.6312Y-3.553
X8.6312Y-3.853
X8.7312Y-3.553
X8.7312Y-3.853
X8.8312Y-3.553
X8.8312Y-3.853
X8.9312Y-3.553
X8.9312Y-3.853
X9.0312Y-3.553
X9.0312Y-3.853
X9.1312Y-3.553
X9.1312Y-3.853
X9.2312Y-3.553
X9.2312Y-3.853
X6.7012Y-3.5961
X6.7012Y-3.793
X4.867Y-4.4286
X4.867Y-4.6255
X5.7345Y-4.4286
X5.7345Y-4.6255
X4.5424Y-4.428
X4.5424Y-4.6249
X4.6062Y-5.1386
X4.6062Y-5.3355
X8.2337Y-2.8105
X8.2337Y-3.1105
X8.3337Y-2.8105
X8.3337Y-3.1105
X8.4337Y-2.8105
X8.4337Y-3.1105
X8.5337Y-2.8105
X8.5337Y-3.1105
X8.6337Y-2.8105
X8.6337Y-3.1105
X8.7337Y-2.8105
X8.7337Y-3.1105
X8.8337Y-2.8105
X8.8337Y-3.1105
X5.8912Y-2.8039
X5.8912Y-3.1039
X5.9912Y-2.8039
X5.9912Y-3.1039
X6.0912Y-2.8039
X6.0912Y-3.1039
X6.1912Y-2.8039
X6.1912Y-3.1039
X6.2912Y-2.8039
X6.2912Y-3.1039
X6.3912Y-2.8039
X6.3912Y-3.1039
X6.4912Y-2.8039
X6.4912Y-3.1039
X6.5912Y-2.8039
X6.5912Y-3.1039
X2.357Y-4.2468
X2.357Y-4.5468
X2.557Y-4.2468
X2.557Y-4.5468
X2.757Y-4.2468
X2.757Y-4.5468
X3.057Y-4.2468
X3.057Y-4.5468
X7.8537Y-4.3971
X7.8537Y-4.5939
X5.8937Y-4.963
X5.9937Y-4.963
X6.0937Y-4.963
X6.1937Y-4.963
X6.2937Y-4.963
X6.3937Y-4.963
X6.4937Y-4.963
X6.5937Y-4.963
X6.6937Y-4.963
X9.9112Y-3.423
X10.0112Y-3.423
X10.1112Y-3.423
X10.2112Y-3.423
X10.3112Y-3.423
X8.6344Y-5.5305
X8.8312Y-5.5305
X8.1062Y-2.8561
X8.1062Y-3.053
X6.8912Y-2.8596
X6.8912Y-3.0564
X4.7362Y-3.553
X4.7362Y-3.853
X4.8362Y-3.553
X4.8362Y-3.853
X4.9362Y-3.553
X4.9362Y-3.853
X5.0362Y-3.553
X5.0362Y-3.853
X5.1362Y-3.553
X5.1362Y-3.853
X5.2362Y-3.553
X5.2362Y-3.853
X5.3362Y-3.553
X5.3362Y-3.853
X7.9312Y-3.993
X8.0312Y-3.993
X8.1312Y-3.993
X8.2312Y-3.993
X8.3312Y-3.993
X7.0212Y-4.348
X7.0212Y-4.648
X7.1212Y-4.348
X7.1212Y-4.648
X7.2212Y-4.348
X7.2212Y-4.648
X7.3212Y-4.348
X7.3212Y-4.648
X7.4212Y-4.348
X7.4212Y-4.648
X7.5212Y-4.348
X7.5212Y-4.648
X7.6212Y-4.348
X7.6212Y-4.648
X7.7212Y-4.348
X7.7212Y-4.648
X9.9115Y-4.9635
X10.0115Y-4.9635
X10.1115Y-4.9635
X10.2115Y-4.9635
X10.3115Y-4.9635
X3.592Y-3.5955
X3.592Y-3.7924
X9.0987Y-4.3972
X9.0987Y-4.5941
X7.8312Y-4.9655
X7.9312Y-4.9655
X8.0312Y-4.9655
X8.1312Y-4.9655
X8.2312Y-4.9655
X8.3312Y-4.9655
X8.4312Y-4.9655
X8.5312Y-4.9655
X8.6312Y-4.9655
X3.8145Y-4.353
X3.8145Y-4.653
X3.9145Y-4.353
X3.9145Y-4.653
X4.0145Y-4.353
X4.0145Y-4.653
X4.1145Y-4.353
X4.1145Y-4.653
X4.2145Y-4.353
X4.2145Y-4.653
X4.3145Y-4.353
X4.3145Y-4.653
X4.4145Y-4.353
X4.4145Y-4.653
X9.7137Y-5.098
X9.7137Y-5.398
X9.8137Y-5.098
X9.8137Y-5.398
X9.9137Y-5.098
X9.9137Y-5.398
X10.0137Y-5.098
X10.0137Y-5.398
X10.1137Y-5.098
X10.1137Y-5.398
X10.2137Y-5.098
X10.2137Y-5.398
X10.3137Y-5.098
X10.3137Y-5.398
X4.0045Y-5.0005
X4.4045Y-5.0005
X6.8312Y-3.553
X6.8312Y-3.853
X6.9312Y-3.553
X6.9312Y-3.853
X7.0312Y-3.553
X7.0312Y-3.853
X7.1312Y-3.553
X7.1312Y-3.853
X7.2312Y-3.553
X7.2312Y-3.853
X7.3312Y-3.553
X7.3312Y-3.853
X7.4312Y-3.553
X7.4312Y-3.853
X6.8312Y-5.0955
X6.8312Y-5.3955
X6.9312Y-5.0955
X6.9312Y-5.3955
X7.0312Y-5.0955
X7.0312Y-5.3955
X7.1312Y-5.0955
X7.1312Y-5.3955
X7.2312Y-5.0955
X7.2312Y-5.3955
X7.3312Y-5.0955
X7.3312Y-5.3955
X7.4312Y-5.0955
X7.4312Y-5.3955
X4.057Y-5.478
X4.457Y-5.478
X2.3721Y-3.0605
X2.569Y-3.0605
X3.717Y-3.553
X3.717Y-3.853
X3.817Y-3.553
X3.817Y-3.853
X3.917Y-3.553
X3.917Y-3.853
X4.017Y-3.553
X4.017Y-3.853
X4.117Y-3.553
X4.117Y-3.853
X4.217Y-3.553
X4.217Y-3.853
X4.317Y-3.553
X4.317Y-3.853
X4.417Y-3.553
X4.417Y-3.853
X5.5987Y-5.1586
X5.5987Y-5.3555
X8.0987Y-4.3986
X8.0987Y-4.5955
X9.2337Y-4.3544
X9.2337Y-4.6544
X9.3337Y-4.3544
X9.3337Y-4.6544
X9.4337Y-4.3544
X9.4337Y-4.6544
X9.5337Y-4.3544
X9.5337Y-4.6544
X9.6337Y-4.3544
X9.6337Y-4.6544
X9.7337Y-4.3544
X9.7337Y-4.6544
X9.8337Y-4.3544
X9.8337Y-4.6544
T5
X4.272Y-5.228
X4.372Y-5.228
T6
X9.1795Y-4.963
X9.2795Y-4.963
X9.3795Y-4.963
X8.8312Y-3.4183
X8.9312Y-3.4183
X9.0312Y-3.4183
X3.8795Y-3.4155
X3.9795Y-3.4155
X4.0795Y-3.4155
X2.5753Y-5.0651
X2.7753Y-5.0655
X3.5429Y-5.423
X3.7398Y-5.423
X9.1791Y-3.4183
X9.2791Y-3.4183
X9.3791Y-3.4183
X2.1578Y-5.0651
X2.3578Y-5.0655
X9.527Y-3.4179
X9.627Y-3.4179
X9.727Y-3.4179
X9.5262Y-4.9605
X9.6262Y-4.9605
X9.7262Y-4.9605
X4.2345Y-3.4155
X4.3345Y-3.4155
X4.4345Y-3.4155
X1.7615Y-2.6435
X1.7615Y-2.7435
X1.8615Y-2.6435
X1.8615Y-2.7435
X1.9615Y-2.6435
X1.9615Y-2.7435
X2.0615Y-2.6435
X2.0615Y-2.7435
X2.1615Y-2.6435
X2.1615Y-2.7435
X2.2615Y-2.6435
X2.2615Y-2.7435
X2.3615Y-2.6435
X2.3615Y-2.7435
X2.4615Y-2.6435
X2.4615Y-2.7435
X2.5615Y-2.6435
X2.5615Y-2.7435
X2.6615Y-2.6435
X2.6615Y-2.7435
X2.7615Y-2.6435
X2.7615Y-2.7435
X2.8615Y-2.6435
X2.8615Y-2.7435
X2.9615Y-2.6435
X2.9615Y-2.7435
X3.0615Y-2.6435
X3.0615Y-2.7435
X3.1615Y-2.6435
X3.1615Y-2.7435
X3.2615Y-2.6435
X3.2615Y-2.7435
X3.3615Y-2.6435
X3.3615Y-2.7435
X3.4615Y-2.6435
X3.4615Y-2.7435
X3.5615Y-2.6435
X3.5615Y-2.7435
X3.6615Y-2.6435
X3.6615Y-2.7435
X8.8312Y-4.9605
X8.9312Y-4.9605
X9.0312Y-4.9605
T7
X3.007Y-4.993
X3.407Y-4.993
X3.2345Y-4.2118
X3.2345Y-4.6118
X3.012Y-5.178
X3.412Y-5.178
T8
X3.0673Y-5.423
X3.2673Y-5.423
X2.1728Y-5.4255
X2.3728Y-5.4255
X2.5728Y-5.4255
X2.7728Y-5.4255
T0
M30
