%TF.GenerationSoftware,KiCad,Pcbnew,(5.1.9)-1*%
%TF.CreationDate,2022-09-08T11:50:57+02:00*%
%TF.ProjectId,gonogo-upduino,676f6e6f-676f-42d7-9570-6475696e6f2e,rev?*%
%TF.SameCoordinates,Original*%
%TF.FileFunction,Copper,L2,Bot*%
%TF.FilePolarity,Positive*%
%FSLAX46Y46*%
G04 Gerber Fmt 4.6, Leading zero omitted, Abs format (unit mm)*
G04 Created by KiCad (PCBNEW (5.1.9)-1) date 2022-09-08 11:50:57*
%MOMM*%
%LPD*%
G01*
G04 APERTURE LIST*
%TA.AperFunction,NonConductor*%
%ADD10C,0.300000*%
%TD*%
%TA.AperFunction,ComponentPad*%
%ADD11R,1.600000X2.400000*%
%TD*%
%TA.AperFunction,ComponentPad*%
%ADD12O,1.600000X2.400000*%
%TD*%
%TA.AperFunction,ComponentPad*%
%ADD13R,2.200000X2.200000*%
%TD*%
%TA.AperFunction,ComponentPad*%
%ADD14O,2.200000X2.200000*%
%TD*%
%TA.AperFunction,ComponentPad*%
%ADD15R,1.700000X1.700000*%
%TD*%
%TA.AperFunction,ComponentPad*%
%ADD16O,1.700000X1.700000*%
%TD*%
%TA.AperFunction,ComponentPad*%
%ADD17C,1.600000*%
%TD*%
%TA.AperFunction,ComponentPad*%
%ADD18R,1.800000X1.600000*%
%TD*%
%TA.AperFunction,ComponentPad*%
%ADD19O,1.200000X1.600000*%
%TD*%
%TA.AperFunction,ComponentPad*%
%ADD20O,1.200000X1.200000*%
%TD*%
%TA.AperFunction,ComponentPad*%
%ADD21O,1.600000X1.600000*%
%TD*%
%TA.AperFunction,ComponentPad*%
%ADD22R,1.600000X1.600000*%
%TD*%
%TA.AperFunction,ComponentPad*%
%ADD23R,3.000000X3.000000*%
%TD*%
%TA.AperFunction,ComponentPad*%
%ADD24C,2.000000*%
%TD*%
%TA.AperFunction,ComponentPad*%
%ADD25C,3.000000*%
%TD*%
%TA.AperFunction,ViaPad*%
%ADD26C,0.800000*%
%TD*%
%TA.AperFunction,Conductor*%
%ADD27C,1.000000*%
%TD*%
%TA.AperFunction,Conductor*%
%ADD28C,0.500000*%
%TD*%
G04 APERTURE END LIST*
D10*
X196623714Y-91706571D02*
X196695142Y-91635142D01*
X196766571Y-91420857D01*
X196766571Y-91278000D01*
X196695142Y-91063714D01*
X196552285Y-90920857D01*
X196409428Y-90849428D01*
X196123714Y-90778000D01*
X195909428Y-90778000D01*
X195623714Y-90849428D01*
X195480857Y-90920857D01*
X195338000Y-91063714D01*
X195266571Y-91278000D01*
X195266571Y-91420857D01*
X195338000Y-91635142D01*
X195409428Y-91706571D01*
X196766571Y-92563714D02*
X196695142Y-92420857D01*
X196623714Y-92349428D01*
X196480857Y-92278000D01*
X196052285Y-92278000D01*
X195909428Y-92349428D01*
X195838000Y-92420857D01*
X195766571Y-92563714D01*
X195766571Y-92778000D01*
X195838000Y-92920857D01*
X195909428Y-92992285D01*
X196052285Y-93063714D01*
X196480857Y-93063714D01*
X196623714Y-92992285D01*
X196695142Y-92920857D01*
X196766571Y-92778000D01*
X196766571Y-92563714D01*
X195409428Y-92420857D02*
X195195142Y-92706571D01*
X195409428Y-92992285D01*
X195766571Y-93492285D02*
X195766571Y-94063714D01*
X195266571Y-93706571D02*
X196552285Y-93706571D01*
X196695142Y-93778000D01*
X196766571Y-93920857D01*
X196766571Y-94063714D01*
X196695142Y-95135142D02*
X196766571Y-94992285D01*
X196766571Y-94706571D01*
X196695142Y-94563714D01*
X196552285Y-94492285D01*
X195980857Y-94492285D01*
X195838000Y-94563714D01*
X195766571Y-94706571D01*
X195766571Y-94992285D01*
X195838000Y-95135142D01*
X195980857Y-95206571D01*
X196123714Y-95206571D01*
X196266571Y-94492285D01*
X195195142Y-94992285D02*
X195409428Y-94778000D01*
X196623714Y-97849428D02*
X196695142Y-97778000D01*
X196766571Y-97563714D01*
X196766571Y-97420857D01*
X196695142Y-97206571D01*
X196552285Y-97063714D01*
X196409428Y-96992285D01*
X196123714Y-96920857D01*
X195909428Y-96920857D01*
X195623714Y-96992285D01*
X195480857Y-97063714D01*
X195338000Y-97206571D01*
X195266571Y-97420857D01*
X195266571Y-97563714D01*
X195338000Y-97778000D01*
X195409428Y-97849428D01*
X195766571Y-99135142D02*
X196766571Y-99135142D01*
X195766571Y-98492285D02*
X196552285Y-98492285D01*
X196695142Y-98563714D01*
X196766571Y-98706571D01*
X196766571Y-98920857D01*
X196695142Y-99063714D01*
X196623714Y-99135142D01*
X196766571Y-99849428D02*
X195766571Y-99849428D01*
X195266571Y-99849428D02*
X195338000Y-99778000D01*
X195409428Y-99849428D01*
X195338000Y-99920857D01*
X195266571Y-99849428D01*
X195409428Y-99849428D01*
X195766571Y-100420857D02*
X196766571Y-100778000D01*
X195766571Y-101135142D01*
X196766571Y-101706571D02*
X195766571Y-101706571D01*
X196052285Y-101706571D02*
X195909428Y-101778000D01*
X195838000Y-101849428D01*
X195766571Y-101992285D01*
X195766571Y-102135142D01*
X196695142Y-103206571D02*
X196766571Y-103063714D01*
X196766571Y-102778000D01*
X196695142Y-102635142D01*
X196552285Y-102563714D01*
X195980857Y-102563714D01*
X195838000Y-102635142D01*
X195766571Y-102778000D01*
X195766571Y-103063714D01*
X195838000Y-103206571D01*
X195980857Y-103278000D01*
X196123714Y-103278000D01*
X196266571Y-102563714D01*
D11*
%TO.P,UPDuino-3.1,1*%
%TO.N,/GO_0*%
X134112000Y-91948000D03*
D12*
%TO.P,UPDuino-3.1,25*%
%TO.N,Net-(U1-Pad25)*%
X192532000Y-74168000D03*
%TO.P,UPDuino-3.1,2*%
%TO.N,/GO_1*%
X136652000Y-91948000D03*
%TO.P,UPDuino-3.1,26*%
%TO.N,Net-(U1-Pad26)*%
X189992000Y-74168000D03*
%TO.P,UPDuino-3.1,3*%
%TO.N,/GO_2*%
X139192000Y-91948000D03*
%TO.P,UPDuino-3.1,27*%
%TO.N,Net-(U1-Pad27)*%
X187452000Y-74168000D03*
%TO.P,UPDuino-3.1,4*%
%TO.N,/GO_3*%
X141732000Y-91948000D03*
%TO.P,UPDuino-3.1,28*%
%TO.N,Net-(U1-Pad28)*%
X184912000Y-74168000D03*
%TO.P,UPDuino-3.1,5*%
%TO.N,/GO_4*%
X144272000Y-91948000D03*
%TO.P,UPDuino-3.1,29*%
%TO.N,Net-(U1-Pad29)*%
X182372000Y-74168000D03*
%TO.P,UPDuino-3.1,6*%
%TO.N,/GO_5*%
X146812000Y-91948000D03*
%TO.P,UPDuino-3.1,30*%
%TO.N,Net-(U1-Pad30)*%
X179832000Y-74168000D03*
%TO.P,UPDuino-3.1,7*%
%TO.N,/GO_6*%
X149352000Y-91948000D03*
%TO.P,UPDuino-3.1,31*%
%TO.N,Net-(U1-Pad31)*%
X177292000Y-74168000D03*
%TO.P,UPDuino-3.1,8*%
%TO.N,/GO_7*%
X151892000Y-91948000D03*
%TO.P,UPDuino-3.1,32*%
%TO.N,/5v*%
X174752000Y-74168000D03*
%TO.P,UPDuino-3.1,9*%
%TO.N,/GO_8*%
X154432000Y-91948000D03*
%TO.P,UPDuino-3.1,33*%
%TO.N,/3\u002C3V*%
X172212000Y-74168000D03*
%TO.P,UPDuino-3.1,10*%
%TO.N,/GO_9*%
X156972000Y-91948000D03*
%TO.P,UPDuino-3.1,34*%
%TO.N,/GND*%
X169672000Y-74168000D03*
%TO.P,UPDuino-3.1,11*%
%TO.N,/GO_10*%
X159512000Y-91948000D03*
%TO.P,UPDuino-3.1,35*%
%TO.N,/GONOGO*%
X167132000Y-74168000D03*
%TO.P,UPDuino-3.1,12*%
%TO.N,/GO_11*%
X162052000Y-91948000D03*
%TO.P,UPDuino-3.1,36*%
%TO.N,/LED_ENABLE*%
X164592000Y-74168000D03*
%TO.P,UPDuino-3.1,13*%
%TO.N,/GO_1_60S*%
X164592000Y-91948000D03*
%TO.P,UPDuino-3.1,37*%
%TO.N,/NOGO_11*%
X162052000Y-74168000D03*
%TO.P,UPDuino-3.1,14*%
%TO.N,/NOGO_1_60S*%
X167132000Y-91948000D03*
%TO.P,UPDuino-3.1,38*%
%TO.N,/NOGO_10*%
X159512000Y-74168000D03*
%TO.P,UPDuino-3.1,15*%
%TO.N,/SECONDES*%
X169672000Y-91948000D03*
%TO.P,UPDuino-3.1,39*%
%TO.N,/NOGO_9*%
X156972000Y-74168000D03*
%TO.P,UPDuino-3.1,16*%
%TO.N,/MINUTES*%
X172212000Y-91948000D03*
%TO.P,UPDuino-3.1,40*%
%TO.N,/NOGO_8*%
X154432000Y-74168000D03*
%TO.P,UPDuino-3.1,17*%
%TO.N,/12MHz*%
X174752000Y-91948000D03*
%TO.P,UPDuino-3.1,41*%
%TO.N,/NOGO_7*%
X151892000Y-74168000D03*
%TO.P,UPDuino-3.1,18*%
%TO.N,Net-(U1-Pad18)*%
X177292000Y-91948000D03*
%TO.P,UPDuino-3.1,42*%
%TO.N,/NOGO_6*%
X149352000Y-74168000D03*
%TO.P,UPDuino-3.1,19*%
%TO.N,Net-(SW5-Pad1)*%
X179832000Y-91948000D03*
%TO.P,UPDuino-3.1,43*%
%TO.N,/NOGO_5*%
X146812000Y-74168000D03*
%TO.P,UPDuino-3.1,20*%
%TO.N,/12MHz*%
X182372000Y-91948000D03*
%TO.P,UPDuino-3.1,44*%
%TO.N,/NOGO_4*%
X144272000Y-74168000D03*
%TO.P,UPDuino-3.1,21*%
%TO.N,Net-(U1-Pad21)*%
X184912000Y-91948000D03*
%TO.P,UPDuino-3.1,45*%
%TO.N,/NOGO_3*%
X141732000Y-74168000D03*
%TO.P,UPDuino-3.1,22*%
%TO.N,Net-(U1-Pad22)*%
X187452000Y-91948000D03*
%TO.P,UPDuino-3.1,46*%
%TO.N,/NOGO_2*%
X139192000Y-74168000D03*
%TO.P,UPDuino-3.1,23*%
%TO.N,Net-(U1-Pad23)*%
X189992000Y-91948000D03*
%TO.P,UPDuino-3.1,47*%
%TO.N,/NOGO_1*%
X136652000Y-74168000D03*
%TO.P,UPDuino-3.1,24*%
%TO.N,Net-(U1-Pad24)*%
X192532000Y-91948000D03*
%TO.P,UPDuino-3.1,48*%
%TO.N,/NOGO_0*%
X134112000Y-74168000D03*
%TD*%
D13*
%TO.P,1N4001,1*%
%TO.N,/5v*%
X192786000Y-66548000D03*
D14*
%TO.P,1N4001,2*%
%TO.N,Net-(D1-Pad2)*%
X192786000Y-56388000D03*
%TD*%
D15*
%TO.P,E<LED>D,1*%
%TO.N,/3\u002C3V*%
X172593000Y-68072000D03*
D16*
%TO.P,E<LED>D,2*%
%TO.N,/LED_ENABLE*%
X175133000Y-68072000D03*
%TO.P,E<LED>D,3*%
%TO.N,/GND*%
X177673000Y-68072000D03*
%TD*%
D15*
%TO.P,NOGO-1-60S,1*%
%TO.N,/GND*%
X180340000Y-107569000D03*
D16*
%TO.P,NOGO-1-60S,2*%
%TO.N,/NOGO_1_60S*%
X180340000Y-105029000D03*
%TO.P,NOGO-1-60S,3*%
%TO.N,/3\u002C3V*%
X180340000Y-102489000D03*
%TD*%
%TO.P,GO-1-60S,3*%
%TO.N,/3\u002C3V*%
X173863000Y-102489000D03*
%TO.P,GO-1-60S,2*%
%TO.N,/GO_1_60S*%
X173863000Y-105029000D03*
D15*
%TO.P,GO-1-60S,1*%
%TO.N,/GND*%
X173863000Y-107569000D03*
%TD*%
D17*
%TO.P,FINDER 30-22/5v,21*%
%TO.N,Net-(J1-Pad5)*%
X180340000Y-64262000D03*
%TO.P,FINDER 30-22/5v,22*%
%TO.N,Net-(K1-Pad22)*%
X175260000Y-64262000D03*
%TO.P,FINDER 30-22/5v,24*%
%TO.N,Net-(F1-Pad2)*%
X170180000Y-64262000D03*
D18*
%TO.P,FINDER 30-22/5v,A1*%
%TO.N,Net-(D1-Pad2)*%
X187960000Y-56642000D03*
D17*
%TO.P,FINDER 30-22/5v,A2*%
%TO.N,/5v*%
X187960000Y-64262000D03*
%TO.P,FINDER 30-22/5v,11*%
%TO.N,Net-(J1-Pad3)*%
X180340000Y-56642000D03*
%TO.P,FINDER 30-22/5v,14*%
%TO.N,Net-(F2-Pad2)*%
X170180000Y-56642000D03*
%TO.P,FINDER 30-22/5v,12*%
%TO.N,Net-(K1-Pad12)*%
X175260000Y-56642000D03*
%TD*%
D19*
%TO.P,2N2222,1*%
%TO.N,/GND*%
X183261000Y-70358000D03*
D20*
%TO.P,2N2222,2*%
%TO.N,Net-(Q1-Pad2)*%
X184531000Y-69088000D03*
%TO.P,2N2222,3*%
%TO.N,Net-(D1-Pad2)*%
X183261000Y-67818000D03*
%TD*%
D21*
%TO.P,RN1,9*%
%TO.N,/NOGO_4*%
X148590000Y-69088000D03*
%TO.P,RN1,8*%
%TO.N,/NOGO_5*%
X151130000Y-69088000D03*
%TO.P,RN1,7*%
%TO.N,/NOGO_6*%
X153670000Y-69088000D03*
%TO.P,RN1,6*%
%TO.N,/NOGO_7*%
X156210000Y-69088000D03*
%TO.P,RN1,5*%
%TO.N,/NOGO_8*%
X158750000Y-69088000D03*
%TO.P,RN1,4*%
%TO.N,/NOGO_9*%
X161290000Y-69088000D03*
%TO.P,RN1,3*%
%TO.N,/NOGO_10*%
X163830000Y-69088000D03*
%TO.P,RN1,2*%
%TO.N,/NOGO_11*%
X166370000Y-69088000D03*
D22*
%TO.P,RN1,1*%
%TO.N,/3\u002C3V*%
X168910000Y-69088000D03*
%TD*%
D21*
%TO.P,RN2,5*%
%TO.N,/NOGO_3*%
X144526000Y-69088000D03*
%TO.P,RN2,4*%
%TO.N,/NOGO_2*%
X141986000Y-69088000D03*
%TO.P,RN2,3*%
%TO.N,/NOGO_1*%
X139446000Y-69088000D03*
%TO.P,RN2,2*%
%TO.N,/NOGO_0*%
X136906000Y-69088000D03*
D22*
%TO.P,RN2,1*%
%TO.N,/3\u002C3V*%
X134366000Y-69088000D03*
%TD*%
%TO.P,RN3,1*%
%TO.N,/3\u002C3V*%
X168656000Y-97536000D03*
D21*
%TO.P,RN3,2*%
%TO.N,/GO_11*%
X166116000Y-97536000D03*
%TO.P,RN3,3*%
%TO.N,/GO_10*%
X163576000Y-97536000D03*
%TO.P,RN3,4*%
%TO.N,/GO_9*%
X161036000Y-97536000D03*
%TO.P,RN3,5*%
%TO.N,/GO_8*%
X158496000Y-97536000D03*
%TO.P,RN3,6*%
%TO.N,/GO_7*%
X155956000Y-97536000D03*
%TO.P,RN3,7*%
%TO.N,/GO_6*%
X153416000Y-97536000D03*
%TO.P,RN3,8*%
%TO.N,/GO_5*%
X150876000Y-97536000D03*
%TO.P,RN3,9*%
%TO.N,/GO_4*%
X148336000Y-97536000D03*
%TD*%
D22*
%TO.P,RN4,1*%
%TO.N,/3\u002C3V*%
X134112000Y-97536000D03*
D21*
%TO.P,RN4,2*%
%TO.N,/GO_0*%
X136652000Y-97536000D03*
%TO.P,RN4,3*%
%TO.N,/GO_1*%
X139192000Y-97536000D03*
%TO.P,RN4,4*%
%TO.N,/GO_2*%
X141732000Y-97536000D03*
%TO.P,RN4,5*%
%TO.N,/GO_3*%
X144272000Y-97536000D03*
%TD*%
D22*
%TO.P,NOGO-4-11,1*%
%TO.N,/NOGO_4*%
X147574000Y-64262000D03*
D21*
%TO.P,NOGO-4-11,9*%
%TO.N,/GND*%
X165354000Y-56642000D03*
%TO.P,NOGO-4-11,2*%
%TO.N,/NOGO_5*%
X150114000Y-64262000D03*
%TO.P,NOGO-4-11,10*%
%TO.N,/GND*%
X162814000Y-56642000D03*
%TO.P,NOGO-4-11,3*%
%TO.N,/NOGO_6*%
X152654000Y-64262000D03*
%TO.P,NOGO-4-11,11*%
%TO.N,/GND*%
X160274000Y-56642000D03*
%TO.P,NOGO-4-11,4*%
%TO.N,/NOGO_7*%
X155194000Y-64262000D03*
%TO.P,NOGO-4-11,12*%
%TO.N,/GND*%
X157734000Y-56642000D03*
%TO.P,NOGO-4-11,5*%
%TO.N,/NOGO_8*%
X157734000Y-64262000D03*
%TO.P,NOGO-4-11,13*%
%TO.N,/GND*%
X155194000Y-56642000D03*
%TO.P,NOGO-4-11,6*%
%TO.N,/NOGO_9*%
X160274000Y-64262000D03*
%TO.P,NOGO-4-11,14*%
%TO.N,/GND*%
X152654000Y-56642000D03*
%TO.P,NOGO-4-11,7*%
%TO.N,/NOGO_10*%
X162814000Y-64262000D03*
%TO.P,NOGO-4-11,15*%
%TO.N,/GND*%
X150114000Y-56642000D03*
%TO.P,NOGO-4-11,8*%
%TO.N,/NOGO_11*%
X165354000Y-64262000D03*
%TO.P,NOGO-4-11,16*%
%TO.N,/GND*%
X147574000Y-56642000D03*
%TD*%
%TO.P,NOGO-0-3,8*%
%TO.N,/GND*%
X134366000Y-56642000D03*
%TO.P,NOGO-0-3,4*%
%TO.N,/NOGO_3*%
X141986000Y-64262000D03*
%TO.P,NOGO-0-3,7*%
%TO.N,/GND*%
X136906000Y-56642000D03*
%TO.P,NOGO-0-3,3*%
%TO.N,/NOGO_2*%
X139446000Y-64262000D03*
%TO.P,NOGO-0-3,6*%
%TO.N,/GND*%
X139446000Y-56642000D03*
%TO.P,NOGO-0-3,2*%
%TO.N,/NOGO_1*%
X136906000Y-64262000D03*
%TO.P,NOGO-0-3,5*%
%TO.N,/GND*%
X141986000Y-56642000D03*
D22*
%TO.P,NOGO-0-3,1*%
%TO.N,/NOGO_0*%
X134366000Y-64262000D03*
%TD*%
%TO.P,GO-0-3,1*%
%TO.N,/GND*%
X134366000Y-109728000D03*
D21*
%TO.P,GO-0-3,5*%
%TO.N,/GO_3*%
X141986000Y-102108000D03*
%TO.P,GO-0-3,2*%
%TO.N,/GND*%
X136906000Y-109728000D03*
%TO.P,GO-0-3,6*%
%TO.N,/GO_2*%
X139446000Y-102108000D03*
%TO.P,GO-0-3,3*%
%TO.N,/GND*%
X139446000Y-109728000D03*
%TO.P,GO-0-3,7*%
%TO.N,/GO_1*%
X136906000Y-102108000D03*
%TO.P,GO-0-3,4*%
%TO.N,/GND*%
X141986000Y-109728000D03*
%TO.P,GO-0-3,8*%
%TO.N,/GO_0*%
X134366000Y-102108000D03*
%TD*%
%TO.P,GO-4-11,16*%
%TO.N,/GO_4*%
X147574000Y-102108000D03*
%TO.P,GO-4-11,8*%
%TO.N,/GND*%
X165354000Y-109728000D03*
%TO.P,GO-4-11,15*%
%TO.N,/GO_5*%
X150114000Y-102108000D03*
%TO.P,GO-4-11,7*%
%TO.N,/GND*%
X162814000Y-109728000D03*
%TO.P,GO-4-11,14*%
%TO.N,/GO_6*%
X152654000Y-102108000D03*
%TO.P,GO-4-11,6*%
%TO.N,/GND*%
X160274000Y-109728000D03*
%TO.P,GO-4-11,13*%
%TO.N,/GO_7*%
X155194000Y-102108000D03*
%TO.P,GO-4-11,5*%
%TO.N,/GND*%
X157734000Y-109728000D03*
%TO.P,GO-4-11,12*%
%TO.N,/GO_8*%
X157734000Y-102108000D03*
%TO.P,GO-4-11,4*%
%TO.N,/GND*%
X155194000Y-109728000D03*
%TO.P,GO-4-11,11*%
%TO.N,/GO_9*%
X160274000Y-102108000D03*
%TO.P,GO-4-11,3*%
%TO.N,/GND*%
X152654000Y-109728000D03*
%TO.P,GO-4-11,10*%
%TO.N,/GO_10*%
X162814000Y-102108000D03*
%TO.P,GO-4-11,2*%
%TO.N,/GND*%
X150114000Y-109728000D03*
%TO.P,GO-4-11,9*%
%TO.N,/GO_11*%
X165354000Y-102108000D03*
D22*
%TO.P,GO-4-11,1*%
%TO.N,/GND*%
X147574000Y-109728000D03*
%TD*%
D23*
%TO.P,MIN,1*%
%TO.N,/MINUTES*%
X191770000Y-107696000D03*
%TD*%
%TO.P,SEC,1*%
%TO.N,/SECONDES*%
X186690000Y-107569000D03*
%TD*%
D24*
%TO.P,F1/2A,2*%
%TO.N,Net-(F1-Pad2)*%
X125486000Y-73025000D03*
%TO.P,F1/2A,1*%
%TO.N,Net-(F1-Pad1)*%
X125476000Y-78105000D03*
%TD*%
D25*
%TO.P,J1,2*%
%TO.N,Net-(F2-Pad1)*%
X124841000Y-98552000D03*
%TO.P,J1,3*%
%TO.N,Net-(J1-Pad3)*%
X124841000Y-93472000D03*
D23*
%TO.P,J1,1*%
%TO.N,/GND*%
X124841000Y-103632000D03*
D25*
%TO.P,J1,4*%
%TO.N,Net-(F1-Pad1)*%
X124841000Y-88392000D03*
%TO.P,J1,5*%
%TO.N,Net-(J1-Pad5)*%
X124841000Y-83312000D03*
%TD*%
D24*
%TO.P,F2/2A,1*%
%TO.N,Net-(F2-Pad1)*%
X125476000Y-68072000D03*
%TO.P,F2/2A,2*%
%TO.N,Net-(F2-Pad2)*%
X125486000Y-62992000D03*
%TD*%
%TO.P,RESET,2*%
%TO.N,/GND*%
X185928000Y-101655000D03*
%TO.P,RESET,1*%
%TO.N,Net-(SW5-Pad1)*%
X185928000Y-97155000D03*
%TO.P,RESET,2*%
%TO.N,/GND*%
X192428000Y-101655000D03*
%TO.P,RESET,1*%
%TO.N,Net-(SW5-Pad1)*%
X192428000Y-97155000D03*
%TD*%
D17*
%TO.P,15k,1*%
%TO.N,Net-(Q1-Pad2)*%
X188722000Y-68580000D03*
D21*
%TO.P,15k,2*%
%TO.N,/GONOGO*%
X188722000Y-71120000D03*
%TD*%
D26*
%TO.N,Net-(J1-Pad5)*%
X139319000Y-86360000D03*
%TD*%
D27*
%TO.N,/GND*%
X134366000Y-109728000D02*
X136906000Y-109728000D01*
X136906000Y-109728000D02*
X139446000Y-109728000D01*
X139446000Y-109728000D02*
X141986000Y-109728000D01*
X141986000Y-109728000D02*
X147574000Y-109728000D01*
X147574000Y-109728000D02*
X150114000Y-109728000D01*
X150114000Y-109728000D02*
X152654000Y-109728000D01*
X152654000Y-109728000D02*
X155194000Y-109728000D01*
X155194000Y-109728000D02*
X157734000Y-109728000D01*
X157734000Y-109728000D02*
X160274000Y-109728000D01*
X160274000Y-109728000D02*
X162814000Y-109728000D01*
X162814000Y-109728000D02*
X165354000Y-109728000D01*
X134366000Y-56642000D02*
X136906000Y-56642000D01*
X136906000Y-56642000D02*
X139446000Y-56642000D01*
X139446000Y-56642000D02*
X141986000Y-56642000D01*
X141986000Y-56642000D02*
X147574000Y-56642000D01*
X147574000Y-56642000D02*
X150114000Y-56642000D01*
X150114000Y-56642000D02*
X152654000Y-56642000D01*
X152654000Y-56642000D02*
X155194000Y-56642000D01*
X155194000Y-56642000D02*
X157734000Y-56642000D01*
X157734000Y-56642000D02*
X160274000Y-56642000D01*
X160274000Y-56642000D02*
X162814000Y-56642000D01*
X162814000Y-56642000D02*
X165354000Y-56642000D01*
X169672000Y-73406000D02*
X169672000Y-74168000D01*
D28*
X185928000Y-101655000D02*
X192428000Y-101655000D01*
D27*
X173863000Y-107569000D02*
X180340000Y-107569000D01*
X171704000Y-109728000D02*
X173863000Y-107569000D01*
X165354000Y-109728000D02*
X171704000Y-109728000D01*
X180340000Y-107569000D02*
X181991000Y-107569000D01*
X181991000Y-107569000D02*
X183388000Y-106172000D01*
X183388000Y-104195000D02*
X185928000Y-101655000D01*
X183388000Y-106172000D02*
X183388000Y-104195000D01*
X169672000Y-74168000D02*
X169672000Y-73152000D01*
X169672000Y-73152000D02*
X170942000Y-71882000D01*
X170942000Y-71882000D02*
X177038000Y-71882000D01*
X177038000Y-71882000D02*
X177038000Y-71755000D01*
X177673000Y-71120000D02*
X177673000Y-68072000D01*
X177038000Y-71755000D02*
X177673000Y-71120000D01*
X180975000Y-68072000D02*
X183261000Y-70358000D01*
X177673000Y-68072000D02*
X180975000Y-68072000D01*
X177673000Y-67564000D02*
X177673000Y-68072000D01*
X176276000Y-66167000D02*
X177673000Y-67564000D01*
X168275000Y-66167000D02*
X176276000Y-66167000D01*
X167767000Y-65659000D02*
X168275000Y-66167000D01*
X167767000Y-59055000D02*
X167767000Y-65659000D01*
X165354000Y-56642000D02*
X167767000Y-59055000D01*
X128524000Y-103886000D02*
X134366000Y-109728000D01*
X128524000Y-66040000D02*
X128524000Y-103886000D01*
X134366000Y-60198000D02*
X128524000Y-66040000D01*
X134366000Y-56642000D02*
X134366000Y-60198000D01*
X128397000Y-103759000D02*
X128524000Y-103886000D01*
X124841000Y-103759000D02*
X128397000Y-103759000D01*
D28*
%TO.N,Net-(D1-Pad2)*%
X192532000Y-56642000D02*
X192786000Y-56388000D01*
X187960000Y-56642000D02*
X192532000Y-56642000D01*
X186560000Y-56642000D02*
X184147000Y-59055000D01*
X187960000Y-56642000D02*
X186560000Y-56642000D01*
X184147000Y-59055000D02*
X178689000Y-59055000D01*
X178689000Y-59055000D02*
X177546000Y-60198000D01*
X177546000Y-60198000D02*
X177546000Y-65278000D01*
X177546000Y-65278000D02*
X178562000Y-66294000D01*
X178562000Y-66294000D02*
X182626000Y-66294000D01*
X183261000Y-66929000D02*
X183261000Y-67818000D01*
X182626000Y-66294000D02*
X183261000Y-66929000D01*
D27*
%TO.N,/3\u002C3V*%
X134366000Y-69088000D02*
X133350000Y-69088000D01*
X133350000Y-69088000D02*
X131318000Y-71120000D01*
X131318000Y-94742000D02*
X134112000Y-97536000D01*
X131318000Y-71120000D02*
X131318000Y-94742000D01*
X173863000Y-102489000D02*
X180086000Y-102489000D01*
X180086000Y-102489000D02*
X180340000Y-102489000D01*
D28*
%TO.N,/5v*%
X174752000Y-74168000D02*
X175124219Y-74168000D01*
D27*
X192786000Y-66548000D02*
X194056000Y-66548000D01*
X194056000Y-66548000D02*
X194945000Y-67437000D01*
X194945000Y-67437000D02*
X194945000Y-76835000D01*
X194945000Y-76835000D02*
X194056000Y-77724000D01*
X194056000Y-77724000D02*
X175133000Y-77724000D01*
X174752000Y-77343000D02*
X174752000Y-74168000D01*
X175133000Y-77724000D02*
X174752000Y-77343000D01*
X190500000Y-64262000D02*
X192786000Y-66548000D01*
X187960000Y-64262000D02*
X190500000Y-64262000D01*
D28*
%TO.N,/LED_ENABLE*%
X175133000Y-69723000D02*
X175133000Y-68072000D01*
X170688000Y-70231000D02*
X174625000Y-70231000D01*
X170307000Y-70612000D02*
X170688000Y-70231000D01*
X166624000Y-70612000D02*
X170307000Y-70612000D01*
X174625000Y-70231000D02*
X175133000Y-69723000D01*
X164592000Y-72644000D02*
X166624000Y-70612000D01*
X164592000Y-74168000D02*
X164592000Y-72644000D01*
%TO.N,/GO_1_60S*%
X164592000Y-91948000D02*
X164592000Y-93472000D01*
X164592000Y-93472000D02*
X165989000Y-94869000D01*
X165989000Y-94869000D02*
X169926000Y-94869000D01*
X169926000Y-94869000D02*
X171323000Y-96266000D01*
X171323000Y-96266000D02*
X171323000Y-104394000D01*
X171958000Y-105029000D02*
X173863000Y-105029000D01*
X171323000Y-104394000D02*
X171958000Y-105029000D01*
%TO.N,Net-(Q1-Pad2)*%
X184531000Y-69088000D02*
X185547000Y-68072000D01*
X188214000Y-68072000D02*
X188722000Y-68580000D01*
X185547000Y-68072000D02*
X188214000Y-68072000D01*
%TO.N,/GONOGO*%
X167132000Y-74168000D02*
X167504219Y-74168000D01*
%TO.N,/NOGO_4*%
X144272000Y-73406000D02*
X148590000Y-69088000D01*
X144272000Y-74168000D02*
X144272000Y-73406000D01*
X148590000Y-65278000D02*
X147574000Y-64262000D01*
X148590000Y-69088000D02*
X148590000Y-65278000D01*
%TO.N,/NOGO_5*%
X146812000Y-73406000D02*
X151130000Y-69088000D01*
X146812000Y-74168000D02*
X146812000Y-73406000D01*
X151130000Y-65278000D02*
X150114000Y-64262000D01*
X151130000Y-69088000D02*
X151130000Y-65278000D01*
%TO.N,/NOGO_6*%
X149352000Y-73406000D02*
X153670000Y-69088000D01*
X149352000Y-74168000D02*
X149352000Y-73406000D01*
X153670000Y-65278000D02*
X152654000Y-64262000D01*
X153670000Y-69088000D02*
X153670000Y-65278000D01*
%TO.N,/NOGO_7*%
X151892000Y-73406000D02*
X156210000Y-69088000D01*
X151892000Y-74168000D02*
X151892000Y-73406000D01*
X156210000Y-65278000D02*
X155194000Y-64262000D01*
X156210000Y-69088000D02*
X156210000Y-65278000D01*
%TO.N,/NOGO_8*%
X154432000Y-73406000D02*
X158750000Y-69088000D01*
X154432000Y-74168000D02*
X154432000Y-73406000D01*
X158750000Y-65278000D02*
X157734000Y-64262000D01*
X158750000Y-69088000D02*
X158750000Y-65278000D01*
%TO.N,/NOGO_9*%
X156972000Y-73406000D02*
X161290000Y-69088000D01*
X156972000Y-74168000D02*
X156972000Y-73406000D01*
X161290000Y-65278000D02*
X160274000Y-64262000D01*
X161290000Y-69088000D02*
X161290000Y-65278000D01*
%TO.N,/NOGO_10*%
X159512000Y-73406000D02*
X163830000Y-69088000D01*
X159512000Y-74168000D02*
X159512000Y-73406000D01*
X163830000Y-65278000D02*
X162814000Y-64262000D01*
X163830000Y-69088000D02*
X163830000Y-65278000D01*
%TO.N,/NOGO_11*%
X162052000Y-73406000D02*
X166370000Y-69088000D01*
X162052000Y-74168000D02*
X162052000Y-73406000D01*
X166370000Y-65278000D02*
X165354000Y-64262000D01*
X166370000Y-69088000D02*
X166370000Y-65278000D01*
%TO.N,/NOGO_0*%
X134112000Y-71882000D02*
X136906000Y-69088000D01*
X134112000Y-74168000D02*
X134112000Y-71882000D01*
X136906000Y-66802000D02*
X134366000Y-64262000D01*
X136906000Y-69088000D02*
X136906000Y-66802000D01*
%TO.N,/NOGO_1*%
X136652000Y-71882000D02*
X139446000Y-69088000D01*
X136652000Y-74168000D02*
X136652000Y-71882000D01*
X139446000Y-66802000D02*
X136906000Y-64262000D01*
X139446000Y-69088000D02*
X139446000Y-66802000D01*
%TO.N,/NOGO_2*%
X139192000Y-71882000D02*
X141986000Y-69088000D01*
X139192000Y-74168000D02*
X139192000Y-71882000D01*
X141986000Y-66802000D02*
X139446000Y-64262000D01*
X141986000Y-69088000D02*
X141986000Y-66802000D01*
%TO.N,/NOGO_3*%
X141732000Y-71882000D02*
X144526000Y-69088000D01*
X141732000Y-74168000D02*
X141732000Y-71882000D01*
X144526000Y-66802000D02*
X141986000Y-64262000D01*
X144526000Y-69088000D02*
X144526000Y-66802000D01*
%TO.N,/GO_11*%
X162052000Y-93472000D02*
X166116000Y-97536000D01*
X162052000Y-91948000D02*
X162052000Y-93472000D01*
X165354000Y-98298000D02*
X166116000Y-97536000D01*
X165354000Y-102108000D02*
X165354000Y-98298000D01*
%TO.N,/GO_10*%
X159512000Y-93472000D02*
X163576000Y-97536000D01*
X159512000Y-91948000D02*
X159512000Y-93472000D01*
X162814000Y-98298000D02*
X163576000Y-97536000D01*
X162814000Y-102108000D02*
X162814000Y-98298000D01*
%TO.N,/GO_9*%
X156972000Y-93472000D02*
X161036000Y-97536000D01*
X156972000Y-91948000D02*
X156972000Y-93472000D01*
X160274000Y-98298000D02*
X161036000Y-97536000D01*
X160274000Y-102108000D02*
X160274000Y-98298000D01*
%TO.N,/GO_8*%
X154432000Y-93472000D02*
X158496000Y-97536000D01*
X154432000Y-91948000D02*
X154432000Y-93472000D01*
X157734000Y-98298000D02*
X158496000Y-97536000D01*
X157734000Y-102108000D02*
X157734000Y-98298000D01*
%TO.N,/GO_7*%
X151892000Y-93472000D02*
X155956000Y-97536000D01*
X151892000Y-91948000D02*
X151892000Y-93472000D01*
X155194000Y-98298000D02*
X155956000Y-97536000D01*
X155194000Y-102108000D02*
X155194000Y-98298000D01*
%TO.N,/GO_6*%
X149352000Y-93472000D02*
X153416000Y-97536000D01*
X149352000Y-91948000D02*
X149352000Y-93472000D01*
X152654000Y-98298000D02*
X153416000Y-97536000D01*
X152654000Y-102108000D02*
X152654000Y-98298000D01*
%TO.N,/GO_5*%
X146812000Y-93472000D02*
X150876000Y-97536000D01*
X146812000Y-91948000D02*
X146812000Y-93472000D01*
X150114000Y-98298000D02*
X150876000Y-97536000D01*
X150114000Y-102108000D02*
X150114000Y-98298000D01*
%TO.N,/GO_4*%
X144272000Y-93472000D02*
X148336000Y-97536000D01*
X144272000Y-91948000D02*
X144272000Y-93472000D01*
X147574000Y-98298000D02*
X148336000Y-97536000D01*
X147574000Y-102108000D02*
X147574000Y-98298000D01*
%TO.N,/GO_3*%
X141732000Y-94996000D02*
X144272000Y-97536000D01*
X141732000Y-91948000D02*
X141732000Y-94996000D01*
X141986000Y-99822000D02*
X144272000Y-97536000D01*
X141986000Y-102108000D02*
X141986000Y-99822000D01*
%TO.N,/GO_2*%
X139192000Y-94996000D02*
X141732000Y-97536000D01*
X139192000Y-91948000D02*
X139192000Y-94996000D01*
X139446000Y-99822000D02*
X141732000Y-97536000D01*
X139446000Y-102108000D02*
X139446000Y-99822000D01*
%TO.N,/GO_1*%
X136652000Y-94996000D02*
X139192000Y-97536000D01*
X136652000Y-91948000D02*
X136652000Y-94996000D01*
X136906000Y-99822000D02*
X139192000Y-97536000D01*
X136906000Y-102108000D02*
X136906000Y-99822000D01*
%TO.N,/GO_0*%
X134112000Y-94996000D02*
X136652000Y-97536000D01*
X134112000Y-91948000D02*
X134112000Y-94996000D01*
X134366000Y-99822000D02*
X136652000Y-97536000D01*
X134366000Y-102108000D02*
X134366000Y-99822000D01*
%TO.N,/SECONDES*%
X169672000Y-91948000D02*
X169672000Y-92710000D01*
%TO.N,/12MHz*%
X174752000Y-88900000D02*
X174752000Y-91948000D01*
X176022000Y-87630000D02*
X174752000Y-88900000D01*
X180340000Y-87630000D02*
X176022000Y-87630000D01*
X182372000Y-89662000D02*
X180340000Y-87630000D01*
X182372000Y-91948000D02*
X182372000Y-89662000D01*
D27*
%TO.N,Net-(F1-Pad1)*%
X124841000Y-88519000D02*
X122555000Y-88519000D01*
X122555000Y-88519000D02*
X121920000Y-87884000D01*
X121920000Y-87884000D02*
X121920000Y-78994000D01*
X122809000Y-78105000D02*
X125476000Y-78105000D01*
X121920000Y-78994000D02*
X122809000Y-78105000D01*
%TO.N,Net-(J1-Pad5)*%
X180340000Y-64262000D02*
X180340000Y-61849000D01*
X180340000Y-61849000D02*
X181229000Y-60960000D01*
X181229000Y-60960000D02*
X193802000Y-60960000D01*
X193802000Y-60960000D02*
X196723000Y-63881000D01*
X196723000Y-63881000D02*
X196723000Y-84074000D01*
X196723000Y-84074000D02*
X194437000Y-86360000D01*
X194437000Y-86360000D02*
X139319000Y-86360000D01*
D28*
%TO.N,Net-(SW5-Pad1)*%
X185039000Y-97155000D02*
X185928000Y-97155000D01*
X179832000Y-91948000D02*
X185039000Y-97155000D01*
X185928000Y-97155000D02*
X192428000Y-97155000D01*
%TD*%
M02*
